<?xml version="1.0" encoding="UTF-8" standalone="no"?>
<!DOCTYPE svg PUBLIC "-//W3C//DTD SVG 1.1//EN" "http://www.w3.org/Graphics/SVG/1.1/DTD/svg11.dtd">
<svg width="100%" height="100%" viewBox="0 0 963 1074" version="1.1" xmlns="http://www.w3.org/2000/svg" xmlns:xlink="http://www.w3.org/1999/xlink" xml:space="preserve" xmlns:serif="http://www.serif.com/" style="fill-rule:evenodd;clip-rule:evenodd;stroke-linejoin:round;stroke-miterlimit:2;">
    <g transform="matrix(1,0,0,1,-465.638,-410.898)">
        <g transform="matrix(1,0,0,1,-66.3,-66.4)">
            <path d="M1335.4,957C1290.3,923.9 1248.4,901.6 1229.9,890.8C1184.2,864 1012.9,773.1 955.5,710.1C915.9,661 890.5,614.9 1036.4,556.7C1036.4,556.7 1132.7,518.6 1275.3,494.3C1285.7,492.5 1284.3,477.1 1273.7,477.3C1139.9,480.4 931.4,495.9 774.2,556.7C523.2,653.7 714,822.8 714,822.8C714,822.8 748,860.7 826.7,933.5C905.6,1006.5 994.2,1102.4 870.4,1236.1C842.9,1265.8 804.7,1297.9 763.2,1329.2C1227.3,1212.2 1324.9,985.2 1335.4,957Z" style="fill:rgb(139,55,255);fill-rule:nonzero;"/>
        </g>
        <g transform="matrix(1,0,0,1,-66.3,-66.4)">
            <path d="M1490.9,1170.8C1474.3,1077.3 1401.4,1005.5 1335.4,957C1324.9,985.3 1227.3,1212.3 763.2,1329.2C683.5,1389.3 591.6,1446.4 538.9,1477.8C526.7,1485.1 531.5,1503.8 545.8,1504.2C660.1,1507.4 955.8,1518 1277,1548.9L1302,1550.9C1312.1,1551.7 1321.9,1547.9 1328.8,1540.5C1371,1495.2 1516.7,1325.6 1490.9,1170.8Z" style="fill:rgb(113,44,249);fill-rule:nonzero;"/>
        </g>
    </g>
</svg>
